<svg xmlns="http://www.w3.org/2000/svg" viewBox="0 0 246.1 102.97"><defs><style>.cls-1{fill:#231f20;}.cls-2{fill:#e42f25;}</style></defs><title>logo</title><g id="Layer_2" data-name="Layer 2"><g id="Layer_1-2" data-name="Layer 1"><path class="cls-1" d="M13.64,36.35c.4,7,7.05,15.88,6.44,23.47-.41,5.77-5.9,11.06-11.19,11.06-.68,0-3.6-.27-4.68-1.22C2.92,69,0,65.18,0,63.69c.14-.27.07-.41.27-.41.41.21.48.55.75.55a.5.5,0,0,0,.27-.07c1.29.81,1.69,1.63,4.27,1.63,3.33,0,5.43-3.06,4.21-6.72-1.63-5-6.11-12-6.72-18.59C2.1,28.75,12.42,19.93,23.13,19.93c2.24,0,3.94,1.16,5,3.6.88,2.1-.89,3.53-2.58,2.17C19.61,24.82,13.36,31.47,13.64,36.35Z"/><path class="cls-1" d="M49.86,45.78c-.14.14-.2.2-.2.27s.13.14.13.34a.26.26,0,0,1-.07.21c0,.06.07,0,.07.06a1.77,1.77,0,0,1-.4,1.16.77.77,0,0,1,.13-.48h-.07c-.13,0-.13.21-1.35,2.65a6.49,6.49,0,0,0,1.15-1.63v.13c0,.21-.2.28-.2.48a5.44,5.44,0,0,0,1-2c.06,0,.06.21.06.21v.27c.07,0,.07.07.07.13,0,.27-.34.41-.34.61s.07.14.14.21c-.48,2-3.53,5.63-5,7.53-.07.07-.07.07-.14.07a2.54,2.54,0,0,1,.61-1.09v.14c.88-1.16,2.31-3.13,3.19-4.55,0,0-.07,0-.07-.14s.48-.54.48-.54A.22.22,0,0,1,49,50c.27-.27.07-.61.27-.68v-.2A20.75,20.75,0,0,0,48,50.94h.14c-.07.34-.68.54-1.36,1.9a.26.26,0,0,1-.14-.21c.07,0-.47.75-.54,1L46,53.51a2.79,2.79,0,0,1-.54,1h-.07a1.79,1.79,0,0,1-.47.55l.07.13c0,.48-1.09,1.76-1,1.7-2.44,2.91-6.92,6.65-10.25,6.65,0,0-.13,0-.13-.07a.07.07,0,0,0,.07-.07v-.07c-.55,0-.95.14-1.43.14-.2,0-.61-.14-.81-.14s0,.14-.14.14-.2-.14-.41-.14h-.27A8.72,8.72,0,0,0,29.3,63a3.16,3.16,0,0,0,2.24.61h.75c-.2.13-.2,0-.41.13.41,0,.41-.07.41.07a11.06,11.06,0,0,1-2.78-.41c.13.14.47.21.54.34a1.92,1.92,0,0,1-.95-.34H29a.24.24,0,0,0,.07.14H29c-.06,0-.13-.14-.13-.14-.55.07-.95-.4-1.36-.47a10.23,10.23,0,0,1-3.39-7.8c0-5.77,5.63-14.25,12.28-14.25,1.29,0,1.29.75,2.24,1.22a.73.73,0,0,1-.07-.2c.07.13.13.13.13.13s.07,0,.07-.07-.07-.13-.07-.2l.21.27c.07,0,.07,0,.07-.07v-.13c.2.41.13,1,.27,1.36a6.05,6.05,0,0,1,.88,2.91c0,2.17-1.49,6.65-7.8,6.65a14.81,14.81,0,0,1-2.65-.27,7.12,7.12,0,0,0-.41,2.17c0,2.65,1.84,4,4.41,4,5.63,0,9.43-6.17,15.2-13,.07,0,.41-.34.61-.34C49.52,45.37,49.59,45.71,49.86,45.78ZM27.54,62.88c.14.07.2.2.27.27S27.54,63.08,27.54,62.88Zm3.05-13.3c1-.75,5.63-2.92,6.31-5.7a2,2,0,0,0-.68-.07,4.79,4.79,0,0,0-2.84,1.29A14.18,14.18,0,0,0,30.59,49.58Zm2.58-7.12a5.82,5.82,0,0,1,3.19-1.09.5.5,0,0,0-.27-.07.61.61,0,0,1-.34.07.25.25,0,0,0-.2-.07c-.21,0-.61.14-.61.21A3.37,3.37,0,0,0,33.17,42.46ZM36,41.58a1.66,1.66,0,0,0-.54.06.06.06,0,0,1-.07-.06v-.07a4.75,4.75,0,0,0-1.49.68A3.43,3.43,0,0,0,35,41.78c.21,0,.34.07.48.07s.4-.14.4-.21Zm-.68-.34L36.43,41a1.88,1.88,0,0,0-.55-.07l-.13.07C35.75,41.17,35.21,41.1,35.27,41.24Zm4.28,3.12a1.59,1.59,0,0,1-.14-.55c.14.21.21.61.41.75a2.66,2.66,0,0,0-.68-1.29A1.88,1.88,0,0,0,39.55,44.36Zm7.73,6.37c-.4.21-.47.82-.81,1.29v.14c0-.07-.48.68-.68,1a4.93,4.93,0,0,0,.75-1.7c-.07.14-.07.21-.21.21v-.21c-.34.41-.4,1.09-.95,1.83l-.07-.13c-.13.4-.4.54-.4.88v.07a.54.54,0,0,0,.2-.21h.14c-.14.07-.14.28-.27.41.33-.2.33-.54.61-.75.06.07.06.07.13.07a5.19,5.19,0,0,1,.68-1.15c-.07,0,.14.07.07.2.07-.13.2-.2.27-.4v-.14c0-.14.07-.27.07-.41v-.13C46.88,51.21,47.15,51,47.28,50.73Zm.54-1.29c0-.2.89-1.22,1-1.56-.4.48-1.76,1.7-1.76,2.65v.2c.07-.06.27-.54.41-.54s.06.07.06.2c.14-.33.07-.61.34-.88A.07.07,0,0,1,47.82,49.44Z"/><path class="cls-1" d="M70.82,50c-5,8.34-11,14.18-19,12.89-3.8-.61-7.19-2.85-7.47-8.69,0-7.46,8.14-14.79,16.69-12.41,3.19.88,1.56,3.93-2,3.26C57,44.63,54.4,47.88,53.39,52c-.75,3.13-1,6.86,2.44,7.2C60,59.55,66,52.63,69.6,46.66c.48-.27.75.48.75.61s.4.28.4.41.14.81.34.81C71,49.31,71.23,49.17,70.82,50Z"/><path class="cls-1" d="M83.37,40.22c-.54.2-.54.61-1.15.88.34.2-1.09.75-1.22,1.22-.28.21-.75.34-1,.75-.28.2-.28.61-.48.74a22.51,22.51,0,0,0-6.31,12.55c-.41,2.85-.74,5.5-1,7.87-.13.14-.2-.54-.34-.4s-.33.68-.54.74c0,.14-.27-.06-.4.07s-.07.2-.21.2c0-.27-.13-.13-.13-.27a.14.14,0,0,0-.14.14c-.07-.14,0-.14,0-.2a.68.68,0,0,0-.2.06v-.4c-.14.13-.21.54-.34.54l-.14.13v-.13c-.07,0-.13.2-.34.41v-.28c-.34.14-.2.41-.34.41s-.27.2-.4.27h-.21c-.13.14-.27.21-.34.41a1.8,1.8,0,0,0-.81.41c-.14-.21-.2-.21-.54-.21l-.27-.27c-.14-.34-.28-.27-.34-.54s-.14-.2-.34-.41a2.42,2.42,0,0,0-.14-.4c.34-8.08.88-19.27,3.8-25,.27-.61,1.36-2.24,2-2.24a3.59,3.59,0,0,1,1.76-.88c2.58-.54,2.92.88,2.92,2.17a17.49,17.49,0,0,1-.88,4.34c-.14,1-.34,1.56-.41,2.45,1.83-2.17,6.51-7.33,9.77-6.11C84.25,39.54,83.64,39.81,83.37,40.22Z"/><path class="cls-1" d="M105.15,45.78c-.14.14-.21.2-.21.27s.14.14.14.34a.26.26,0,0,1-.07.21c0,.06.07,0,.07.06a1.73,1.73,0,0,1-.41,1.16.73.73,0,0,1,.14-.48h-.07c-.14,0-.14.21-1.36,2.65a6.26,6.26,0,0,0,1.16-1.63v.13c0,.21-.21.28-.21.48.48-.48.54-.95,1-2,.07,0,.07.21.07.21v.27c.07,0,.07.07.07.13,0,.27-.34.41-.34.61s.07.14.13.21c-.47,2-3.52,5.63-4.95,7.53-.07.07-.07.07-.13.07a2.44,2.44,0,0,1,.61-1.09v.14c.88-1.16,2.3-3.13,3.18-4.55,0,0-.06,0-.06-.14l.47-.54a.22.22,0,0,1-.07.14c.28-.27.07-.61.28-.68v-.2a20.75,20.75,0,0,0-1.29,1.83h.13c-.07.34-.68.54-1.36,1.9a.26.26,0,0,1-.13-.21c.07,0-.48.75-.54,1l-.07-.14a2.94,2.94,0,0,1-.54,1h-.07a1.82,1.82,0,0,1-.48.55l.07.13c0,.48-1.08,1.76-1,1.7C96.8,59.82,92.32,63.56,89,63.56c0,0-.14,0-.14-.07a.07.07,0,0,0,.07-.07v-.07c-.54,0-1,.14-1.42.14-.21,0-.61-.14-.82-.14-.06,0,0,.14-.13.14s-.21-.14-.41-.14h-.27a9.11,9.11,0,0,0-1.29-.4,3.13,3.13,0,0,0,2.24.61h.75c-.21.13-.21,0-.41.13.41,0,.41-.07.41.07a11.2,11.2,0,0,1-2.79-.41c.14.14.48.21.55.34a1.92,1.92,0,0,1-1-.34h-.07a.24.24,0,0,0,.07.14h-.07c-.07,0-.14-.14-.14-.14-.54.07-1-.4-1.35-.47a10.2,10.2,0,0,1-3.4-7.8c0-5.77,5.63-14.25,12.28-14.25,1.29,0,1.29.75,2.24,1.22a.73.73,0,0,1-.07-.2C94,42,94,42,94,42s.07,0,.07-.07-.07-.13-.07-.2l.2.27c.07,0,.07,0,.07-.07v-.13a11.63,11.63,0,0,1,.27,1.36,5.94,5.94,0,0,1,.88,2.91c0,2.17-1.49,6.65-7.8,6.65A14.6,14.6,0,0,1,85,52.43a7.12,7.12,0,0,0-.41,2.17c0,2.65,1.83,4,4.41,4,5.63,0,9.43-6.17,15.2-13,.06,0,.4-.34.61-.34C104.81,45.37,104.87,45.71,105.15,45.78ZM82.83,62.88a1.15,1.15,0,0,1,.27.27C83,63.08,82.83,63.08,82.83,62.88Zm3-13.3c1-.75,5.63-2.92,6.31-5.7a2.06,2.06,0,0,0-.68-.07,4.82,4.82,0,0,0-2.85,1.29A14.15,14.15,0,0,0,85.88,49.58Zm2.58-7.12a5.8,5.8,0,0,1,3.19-1.09.53.53,0,0,0-.28-.07.57.57,0,0,1-.33.07.26.26,0,0,0-.21-.07c-.2,0-.61.14-.61.21A3.3,3.3,0,0,0,88.46,42.46Zm2.78-.88a1.66,1.66,0,0,0-.54.06.06.06,0,0,1-.07-.06v-.07a4.56,4.56,0,0,0-1.49.68,3.51,3.51,0,0,0,1.15-.41c.2,0,.34.07.47.07s.41-.14.41-.21Zm-.68-.34L91.71,41a1.85,1.85,0,0,0-.54-.07L91,41C91,41.17,90.49,41.1,90.56,41.24Zm4.27,3.12a1.83,1.83,0,0,1-.13-.55c.13.21.2.61.41.75a2.66,2.66,0,0,0-.68-1.29A2,2,0,0,0,94.83,44.36Zm7.74,6.37c-.41.21-.48.82-.82,1.29v.14c0-.07-.47.68-.67,1a4.91,4.91,0,0,0,.74-1.7c-.07.14-.07.21-.2.21v-.21c-.34.41-.41,1.09-1,1.83l-.07-.13c-.14.4-.41.54-.41.88v.07a.52.52,0,0,0,.21-.21h.13c-.13.07-.13.28-.27.41.34-.2.34-.54.61-.75.07.07.07.07.14.07a4.74,4.74,0,0,1,.68-1.15c-.07,0,.13.07.06.2.07-.13.21-.2.27-.4v-.14c0-.14.07-.27.07-.41v-.13C102.16,51.21,102.43,51,102.57,50.73Zm.54-1.29c0-.2.88-1.22,1-1.56-.41.48-1.77,1.7-1.77,2.65v.2c.07-.06.28-.54.41-.54s.07.07.07.2c.14-.33.07-.61.34-.88A.07.07,0,0,1,103.11,49.44Z"/><path class="cls-1" d="M105.35,66.2a5.92,5.92,0,0,0,.13,1.09c-.47-.27-.27-.68-.68-.68l.14.47c0,.07-.2-.06-.27-.2,0,.14-.07.27-.07.41-.2.06-.68-1.29-.81-1.43a4,4,0,0,0,.13,1.56c-.34,0-.47-2-.61-2.1s-.2,1.49-.2,1.42c-.27,0-.48-2-.48-2a1.75,1.75,0,0,0-.2,1.08c-.41-.13-.34-1.22-.61-1.22s-.14,1.22-.2,1.22c-.41,0-.68-5.29-.68-6.85,0-.47.07-1,.07-1.49.67-9.16,1.15-16.42,2.17-25.31h-.48c-1.83,0-4.54-.54-4.54-2.1,0-.47,4.07-.54,5.42-.61.48-1.76,1-7.06,1.7-9.43.47-1.42,1.83-1.76,3-1.76s4.21.27,4.21,1.62a1.19,1.19,0,0,1-.14.61,10.41,10.41,0,0,1,.14,2.18c0,3.05-.48,5.08-.61,7,2.17,0,4.88.14,6.31,1.29-.34,0-.88.68-1.29.68a.48.48,0,0,1,.27.27c-1,0-4.82.21-5.63.34-1.36,12.89-2.71,22.12-4.41,34.33a3.32,3.32,0,0,0-.2.68c-.07.06-.14-.55-.41-1.16,0,.48-.07,1-.07,1.29a1.84,1.84,0,0,1-1-1.63A.46.46,0,0,0,105.35,66.2Z"/><path class="cls-1" d="M137,36.35c.41,7,7,15.88,6.44,23.47-.4,5.77-5.9,11.06-11.19,11.06-.68,0-3.6-.27-4.68-1.22-1.29-.68-4.21-4.48-4.21-6,.14-.27.07-.41.27-.41.41.21.48.55.75.55a.48.48,0,0,0,.27-.07c1.29.81,1.7,1.63,4.28,1.63,3.32,0,5.42-3.06,4.2-6.72-1.63-5-6.1-12-6.71-18.59-.95-11.33,9.36-20.15,20.08-20.15,2.23,0,3.93,1.16,4.95,3.6.88,2.1-.88,3.53-2.58,2.17C142.93,24.82,136.69,31.47,137,36.35Z"/><path class="cls-1" d="M171.35,55c0-.14-.41.27-.41.54a5.66,5.66,0,0,0-.47.88c.07,0-.2.41-.27.34a4,4,0,0,1-.48.68s-2.1,2.58-2.37,2.71a1.73,1.73,0,0,0-.82.61c-.67.82-1.08.75-2.1,1.23a2.76,2.76,0,0,1-1.42.13c-1.77.61-3.6-1.15-4.21-2.78-.88-2.17-.88-7.26-.68-10.45a1.87,1.87,0,0,0-.27.68c-1,3.39-4.48,9.77-5.43,9.63-.47.48-.54.89-1,1.16a2.92,2.92,0,0,1-2.85-.34,3.29,3.29,0,0,1-1.36-2.92,24.08,24.08,0,0,1,3.8-11,14.65,14.65,0,0,1,5.63-5.49c1.43-.68,3.87-.14,5.29.67.61.34.34.68.34.75a.65.65,0,0,1-.68.27c0,.41.27.34.27.68a4.45,4.45,0,0,0-.13,1,9.29,9.29,0,0,1-.07.95c-.07,4.27,0,13.57.75,15.13,1.42.95,9.63-10.45,11-12.62.47-.81,1.35-2.1,1.63-.88.06.27.33.4.4.81a3.43,3.43,0,0,1-.27,2.17l-.27.61c-.54.14-.07.34-.61.89-.21.4-.61.74-.75,1.08V52a1.57,1.57,0,0,1,.27-.4c-.2,0-.06-.14,0-.27-.06.13-.2.2-.27.27s-.13.34-.13.13l-.61.89A13.23,13.23,0,0,0,171.69,54l.07.07c.2-.14.27-.55.54-.55v.07l-.07.07C172.1,53.92,171.62,55,171.35,55ZM151.2,58c2.58-4.68,4.48-8.41,7.13-13.23A4.13,4.13,0,0,1,159.48,43c-1.49.81-3.6,3.87-4.95,6.51A49.65,49.65,0,0,0,151,58.06C151.07,58.13,151.14,58.13,151.2,58Zm3.87-6.24v-.07c-.07.07-.14.07-.14.14A.22.22,0,0,0,155.07,51.75Zm.88-1s.07-.07-.07-.13a.06.06,0,0,0-.06.06l.27-.4v-.14c-.07.07-.14.14-.14.2s-.07-.06-.13-.06-.14.27-.28.54c.07,0,.14-.07.28-.14l-.14.21-.61.68c.2.06.14-.14.41-.07Zm-.61,1.7c.07-.07.14-.21.07-.21a.22.22,0,0,0-.14.07.43.43,0,0,1-.06.27C155.27,52.63,155.27,52.63,155.34,52.5Zm-.07-1.56v.13c0-.06.14-.13.21-.2s.06-.14,0-.14S155.27,50.87,155.27,50.94Zm.48.61c.07-.07.07-.21,0-.21s0,.14-.14.34C155.75,51.62,155.75,51.55,155.75,51.55Zm.61-.34c0-.07-.07-.14-.07-.2.2-.28-.14.13-.27.4h.07S156.22,51.21,156.36,51.21Zm-.14.41c.07-.14.34-.28.41-.48l-.48.41Zm.61-.34c-.2.06-.34.34-.47.4C156.63,51.82,156.77,51.34,156.83,51.28Zm0-1.84-.13-.06a3,3,0,0,0,.27-.21.75.75,0,0,0-.41.34.22.22,0,0,1-.07.14C156.56,49.58,156.77,49.58,156.83,49.44Zm.21-1.22v-.13c-.07.07-.07.07-.07.13a1.06,1.06,0,0,1-.2.14c0,.07,0,.07-.07,0a2.8,2.8,0,0,1-.14.47s-.07.07.07.14A2.15,2.15,0,0,1,157,48.22Zm.74-1.29c.07.07.28-.13.41-.4,0,0-.13.2-.2.13Zm13,6.72a.26.26,0,0,0,0-.34,1.55,1.55,0,0,0-.41.48c.27-.28.07-.07-.06.27a8.75,8.75,0,0,0-.82,1.22h.07a.07.07,0,0,1-.07.07c.21,0,.61-.55.54-.75.07.07.14,0,.21,0,.13-.34.2-.27.2-.47S170.74,53.72,170.74,53.65ZM169.59,56c.07,0,.13.07.13,0v-.14Zm.47-.34-.13-.14c-.14.14-.14.27-.21.34C169.93,55.89,170,55.75,170.06,55.62Zm-.07,1c.14-.21.21-.34.41-.41-.2-.13.14-.27,0-.41l-.07.07c.21-.27.21-.2.21-.54-.14.47-.55.68-.68.88.13.07-.2.2.13.41-.13,0-.2.07-.2.13s-.07.07,0,.21Zm.41-1.43c.27-.13.34-.34.48-.54.2-.47.2-.2,0-.41a2.83,2.83,0,0,0-.68,1c-.07-.13-.07,0-.14,0s-.07.07-.07.07.14.2.14.2.27-.47.34-.47Zm.54-2.51c-.2-.06-.61.55-.54.75S170.88,52.7,170.94,52.63Zm.28-.13a6.88,6.88,0,0,0,.74-.61s-.27-.14-.34,0-.2.13-.2.34h-.27C171.15,52.29,171.28,52.43,171.22,52.5Zm0,2.24c.13-.21.34-.34.4-.55l-.4.41c0,.07-.07.2-.07.27A.2.2,0,0,0,171.22,54.74Zm2.3-2.65c-.27.27-.13.48-.47.54.13,0-.14.21-.14.14.21.27-.54.47.41-.75C173.32,52,173.32,52.09,173.52,52.09Zm.27-.54a.24.24,0,0,0,.07-.14C173.79,51.41,173.79,51.55,173.79,51.55Z"/><path class="cls-1" d="M203.78,46.53c.07.27.34.4.4.81a3.43,3.43,0,0,1-.27,2.17c-1.9,3.73-7.19,12.08-12.21,12.35-5.22.2-7.33-2.37-7.33-8v-.34c-2.78,5-5.76,9-9.43,9-1.56,0-3.86-2.17-4.47-3.73a10.52,10.52,0,0,1-.48-3.53c0-5,1.77-11.67,3.94-13.7a5.72,5.72,0,0,1,4.14-1.5c.27.75,2.44,1.09,2.44,1.9a6.12,6.12,0,0,1-.54,2.31c-.28.75-3.94,13-2.31,13,.13,0,.2,0,.27-.07,2.65-2.85,8.34-13.43,9.84-14.79a3.26,3.26,0,0,1,1.9-.88h.13c.61,0,4-.21,3.39,1.9-.34,1.15-2,8.88-2,12.82,0,2,.2,3.19.74,3.19,1.7,0,7.26-7.6,10-11.6C202.42,47,203.51,45.31,203.78,46.53Z"/><path class="cls-1" d="M225.35,50c-5,8.34-11,14.18-19,12.89-3.8-.61-7.19-2.85-7.46-8.69,0-7.46,8.14-14.79,16.69-12.41,3.19.88,1.56,3.93-2,3.26-2.1-.41-4.68,2.84-5.7,6.91-.74,3.13-.95,6.86,2.44,7.2,4.14.4,10.18-6.52,13.78-12.49.47-.27.74.48.74.61s.41.28.41.41.14.81.34.81C225.48,49.31,225.76,49.17,225.35,50Z"/><path class="cls-1" d="M245.83,45.78c-.13.14-.2.2-.2.27s.14.14.14.34a.26.26,0,0,1-.07.21c0,.06.07,0,.07.06a1.73,1.73,0,0,1-.41,1.16.77.77,0,0,1,.13-.48h-.06c-.14,0-.14.21-1.36,2.65a6.24,6.24,0,0,0,1.15-1.63v.13c0,.21-.2.28-.2.48a5.44,5.44,0,0,0,.95-2c.07,0,.07.21.07.21v.27c.06,0,.06.07.06.13,0,.27-.33.41-.33.61a.35.35,0,0,0,.13.21c-.47,2-3.53,5.63-5,7.53-.07.07-.07.07-.14.07a2.66,2.66,0,0,1,.61-1.09v.14c.89-1.16,2.31-3.13,3.19-4.55,0,0-.06,0-.06-.14l.47-.54A.22.22,0,0,1,245,50c.27-.27.07-.61.27-.68v-.2c-.13,0-.4.67-1.29,1.83h.14c-.07.34-.68.54-1.36,1.9a.26.26,0,0,1-.13-.21c.07,0-.48.75-.55,1l-.06-.14a2.81,2.81,0,0,1-.55,1h-.06a1.82,1.82,0,0,1-.48.55l.07.13c0,.48-1.09,1.76-1,1.7-2.44,2.91-6.92,6.65-10.24,6.65,0,0-.14,0-.14-.07a.07.07,0,0,0,.07-.07v-.07c-.54,0-1,.14-1.42.14-.21,0-.62-.14-.82-.14s0,.14-.13.14-.21-.14-.41-.14h-.27a9.11,9.11,0,0,0-1.29-.4,3.13,3.13,0,0,0,2.24.61h.74c-.2.13-.2,0-.4.13.4,0,.4-.07.4.07a11.06,11.06,0,0,1-2.78-.41c.14.14.48.21.54.34a2,2,0,0,1-1-.34H225a.26.26,0,0,0,.06.14H225c-.07,0-.14-.14-.14-.14-.54.07-1-.4-1.36-.47a10.23,10.23,0,0,1-3.39-7.8c0-5.77,5.63-14.25,12.28-14.25,1.29,0,1.29.75,2.24,1.22a.73.73,0,0,1-.07-.2c.07.13.14.13.14.13s.07,0,.07-.07-.07-.13-.07-.2l.2.27c.07,0,.07,0,.07-.07v-.13c.2.41.13,1,.27,1.36a5.94,5.94,0,0,1,.88,2.91c0,2.17-1.49,6.65-7.8,6.65a14.6,14.6,0,0,1-2.64-.27,6.83,6.83,0,0,0-.41,2.17c0,2.65,1.83,4,4.41,4,5.63,0,9.43-6.17,15.19-13,.07,0,.41-.34.61-.34C245.49,45.37,245.56,45.71,245.83,45.78Zm-22.32,17.1a1,1,0,0,1,.28.27C223.72,63.08,223.51,63.08,223.51,62.88Zm3.06-13.3c1-.75,5.63-2.92,6.31-5.7a2.06,2.06,0,0,0-.68-.07,4.82,4.82,0,0,0-2.85,1.29A14.15,14.15,0,0,0,226.57,49.58Zm2.58-7.12a5.79,5.79,0,0,1,3.18-1.09.48.48,0,0,0-.27-.07.58.58,0,0,1-.34.07.23.23,0,0,0-.2-.07c-.2,0-.61.14-.61.21A3.3,3.3,0,0,0,229.15,42.46Zm2.78-.88a1.75,1.75,0,0,0-.55.06.06.06,0,0,1-.06-.06v-.07a4.69,4.69,0,0,0-1.5.68,3.49,3.49,0,0,0,1.16-.41c.2,0,.34.07.47.07s.41-.14.41-.21Zm-.68-.34L232.4,41a1.85,1.85,0,0,0-.54-.07l-.14.07C231.72,41.17,231.18,41.1,231.25,41.24Zm4.27,3.12a1.57,1.57,0,0,1-.13-.55c.13.21.2.61.4.75a2.58,2.58,0,0,0-.68-1.29A2,2,0,0,0,235.52,44.36Zm7.74,6.37c-.41.21-.48.82-.82,1.29v.14c0-.07-.47.68-.68,1a4.93,4.93,0,0,0,.75-1.7c-.07.14-.07.21-.2.21v-.21c-.34.41-.41,1.09-.95,1.83l-.07-.13c-.14.4-.41.54-.41.88v.07a.52.52,0,0,0,.21-.21h.13c-.13.07-.13.28-.27.41.34-.2.34-.54.61-.75.07.07.07.07.14.07a4.89,4.89,0,0,1,.67-1.15c-.06,0,.14.07.07.2.07-.13.21-.2.27-.4v-.14c0-.14.07-.27.07-.41v-.13C242.85,51.21,243.12,51,243.26,50.73Zm.54-1.29c0-.2.88-1.22,1-1.56-.41.48-1.77,1.7-1.77,2.65v.2c.07-.06.27-.54.41-.54s.07.07.07.2c.13-.33.07-.61.34-.88A.07.07,0,0,1,243.8,49.44Z"/><path class="cls-1" d="M53.62,29.75a2.33,2.33,0,0,0,.06.48c-.21-.12-.12-.3-.3-.3l.06.21s-.09,0-.12-.09,0,.12,0,.18-.3-.57-.36-.63a1.75,1.75,0,0,0,.06.69c-.15,0-.21-.87-.27-.93s-.09.66-.09.63-.21-.87-.21-.87a.77.77,0,0,0-.09.48c-.18-.06-.15-.54-.27-.54s-.06.54-.09.54a12.22,12.22,0,0,1-.3-3c0-.21,0-.45,0-.66.3-4.05.51-7.26,1-11.19h-.21c-.81,0-2-.24-2-.93,0-.21,1.8-.24,2.4-.27.21-.78.42-3.12.75-4.17a1.27,1.27,0,0,1,1.35-.78c.51,0,1.86.12,1.86.72a.55.55,0,0,1-.06.27,4.7,4.7,0,0,1,.06,1,30.35,30.35,0,0,1-.27,3.09,4.87,4.87,0,0,1,2.79.57c-.15,0-.39.3-.57.3a.2.2,0,0,1,.12.12c-.45,0-2.13.09-2.49.15-.6,5.7-1.2,9.78-2,15.18a1.62,1.62,0,0,0-.09.3s-.06-.24-.18-.51c0,.21,0,.42,0,.57a.81.81,0,0,1-.42-.72A.2.2,0,0,0,53.62,29.75Z"/><path class="cls-1" d="M74.05,21.17s.06,0,.12-.06-.12.21-.12.21a.1.1,0,0,1,0,.06h.09l-.36.45c.06,0,.18-.15.18-.12a.4.4,0,0,1-.18.27.38.38,0,0,0,.21-.15,16.1,16.1,0,0,1-1,1.38s.06,0,.06,0a1.75,1.75,0,0,1-.24.3c.12,0,.42-.39.48-.51a.06.06,0,0,0-.06-.06l.54-.69v.12a.3.3,0,0,1,0,.09s.15-.12.21-.18a6.44,6.44,0,0,1-.54.72c-.06,0-.57.9-.87.9,0,0-.06.09,0,.09a.13.13,0,0,1,0,.09,5,5,0,0,1,.42-.39c.06,0,.06-.21.06-.12.15-.09.18-.33.3-.33a8.81,8.81,0,0,1-.78,1.17s-.12.21-.15.15-.09.12-.09.21-1,1.41-1,1.41v0c0-.12.15-.09.15-.27a4.61,4.61,0,0,1-.36.39s0,0,0,.06c0,.33-1.56,1.65-1.86,1.86a3.5,3.5,0,0,1-1.89.66c-1.17,0-2.1-.81-2.1-2.82,0-1.29.27-2.88.27-4.23a5.32,5.32,0,0,0-.06-1C63.64,22.55,62,25.7,61.09,27v.06c0,.24-.54.81-.66.87A5.93,5.93,0,0,0,60.16,29C60,29,60,29,60,28.88v-.09c0,.09-.06.24-.12.24v-.15c0,.06-.15.15-.15.18s0,0,0-.09v-.12c0-.06-.21,0-.24-.09v0l-.21.21s0-.06-.06-.21l0,.09-.09-.09c0,.09-.06.06,0,.21S59,29,59,28.88s0,.06,0,.06A.1.1,0,0,1,59,29a0,0,0,0,1,0,0s-.06,0-.06,0-.06.09-.06.24-.33-.09-.33-.18.3-.12.33-.15-.36,0-.36-.06,0,.06,0,.09a1.3,1.3,0,0,0,0,.15v0s-.06-.06-.12-.06,0,.12,0,.12,0-.06,0-.12v0s0-.21-.09-.24-.06.15-.06.21a.26.26,0,0,1-.09-.15c0,.18,0,.24,0,.36s-.06-.15-.18-.18v0s-.06-.09-.06-.18a.23.23,0,0,0,0,.12,2.45,2.45,0,0,1,0,.42c0,.09-.12-.18-.15-.3s-.15-.18-.12-.18h-.09c0,.24-.12.12-.12.3a.87.87,0,0,1,.06.24A2.24,2.24,0,0,1,57,27.53c.72-5.73,1.74-12.36,2.46-17.82.15-1.2,1-2.49,2.25-2.49.69,0,2-.18,2,.6.6,1-2,11.79-2.7,16.08,1.14-1.68,2.55-4.56,5-4.56,2,0,2.46,1.59,2.46,3.45A29.66,29.66,0,0,1,68,26.63a.51.51,0,0,0,0,.21c0,.06,0,.09,0,.09.63-.09,3.12-3.63,4.92-6.09l.09-.06s0-.06,0-.06,0,0,.09,0,0-.09.06-.09,0,.06.06.06a.47.47,0,0,0,.24-.24v.06a.11.11,0,0,0,.09,0s.06,0,.06.06a2.06,2.06,0,0,0,.39-.18v0l.09-.12v.18c.09,0,.12.24.24.18C74.32,20.87,74.14,20.87,74.05,21.17Zm-8.34,6v0c0-.06-.06-.21-.12-.21s.06.12.06.15S65.68,27.17,65.71,27.2Zm0,.06a0,0,0,0,1,0-.06Zm.24-1.77c-.06,0,0,.3-.09.3a1.49,1.49,0,0,1,.06-.51l-.06-.06s-.06.09-.06.06.09.09,0,.21v.12c0,.12,0,.27,0,.39s-.06.06,0,.18v-.06s0,0,0-.06C66,26.06,65.92,25.64,65.92,25.49Zm-.09,1c0-.12,0-.12-.06-.12S65.77,26.48,65.83,26.48ZM66,25a1.18,1.18,0,0,0-.06.18s.09.06.09,0S66,25.1,66,25Zm0,1.47s0,0,.09.12C66,26.51,66,26.48,66,26.48Zm.12-2.31a0,0,0,0,1,0,0C65.89,24.56,66,24.47,66.07,24.17Zm0,1.59s0-.06,0-.06,0,0,0-.09h0v.24s0,0,0,.09S66,25.79,66,25.76ZM66,25s.12.36.12-.09v0C66.1,24.86,66,25,66,25Zm.21-.42s0-.12,0,0-.06,0-.12,0,0,.18,0,.21h.06C66.16,24.47,66.19,24.71,66.25,24.56Zm5.58-.06c.06,0,.12-.09.12-.12A.42.42,0,0,0,71.83,24.5Zm.78-1.14s0,0,0,0-.18.21-.27.27l-.15.24a0,0,0,0,1,0,0c-.09-.09-.18.24-.18.39.09,0,.12-.12.12-.24a.55.55,0,0,0,.36-.27A1.79,1.79,0,0,1,72.61,23.36Zm0-.39a.44.44,0,0,0,.09-.15h0A.37.37,0,0,0,72.64,23Zm.12.24c-.06,0-.06.06-.12.15S72.73,23.27,72.76,23.21Zm.81-1.14c-.15.06-.3.21-.3.33s0,.06.06.09A1.91,1.91,0,0,0,73.57,22.07Z"/><path class="cls-1" d="M82.33,20.72c-.06.06-.09.09-.09.12s.06.06.06.15a.11.11,0,0,1,0,.09s0,0,0,0a.76.76,0,0,1-.18.51.32.32,0,0,1,.06-.21h0c-.06,0-.06.09-.6,1.17a2.77,2.77,0,0,0,.51-.72v.06c0,.09-.09.12-.09.21.21-.21.24-.42.42-.87,0,0,0,.09,0,.09v.12s0,0,0,.06-.15.18-.15.27,0,.06.06.09a14.46,14.46,0,0,1-2.19,3.33s0,0-.06,0a1.13,1.13,0,0,1,.27-.48v.06c.39-.51,1-1.38,1.41-2,0,0,0,0,0-.06l.21-.24a.09.09,0,0,1,0,.06c.12-.12,0-.27.12-.3v-.09c-.06,0-.18.3-.57.81h.06c0,.15-.3.24-.6.84a.11.11,0,0,1-.06-.09s-.21.33-.24.45l0-.06a1.31,1.31,0,0,1-.24.45h0a.81.81,0,0,1-.21.24l0,.06c0,.21-.48.78-.45.75-1.08,1.29-3.06,2.94-4.53,2.94,0,0-.06,0-.06,0a0,0,0,0,0,0,0v0c-.24,0-.42.06-.63.06s-.27-.06-.36-.06,0,.06-.06.06-.09-.06-.18-.06h-.12a4.17,4.17,0,0,0-.57-.18,1.38,1.38,0,0,0,1,.27h.33c-.09.06-.09,0-.18.06.18,0,.18,0,.18,0a4.87,4.87,0,0,1-1.23-.18c.06.06.21.09.24.15a.88.88,0,0,1-.42-.15h0a.1.1,0,0,0,0,.06h0s-.06-.06-.06-.06c-.24,0-.42-.18-.6-.21A4.51,4.51,0,0,1,71,24.83c0-2.55,2.49-6.3,5.43-6.3.57,0,.57.33,1,.54a.3.3,0,0,1,0-.09c0,.06.06.06.06.06s0,0,0,0,0-.06,0-.09l.09.12s0,0,0,0V19a5.3,5.3,0,0,1,.12.6A2.66,2.66,0,0,1,78,20.84c0,1-.66,2.94-3.45,2.94a6.69,6.69,0,0,1-1.17-.12,3.13,3.13,0,0,0-.18,1,1.72,1.72,0,0,0,2,1.77c2.49,0,4.17-2.73,6.72-5.76,0,0,.18-.15.27-.15S82.21,20.69,82.33,20.72Zm-9.87,7.56c.06,0,.09.09.12.12S72.46,28.37,72.46,28.28Zm1.35-5.88c.45-.33,2.49-1.29,2.79-2.52a.92.92,0,0,0-.3,0,2.13,2.13,0,0,0-1.26.57A6.24,6.24,0,0,0,73.81,22.4ZM75,19.25a2.57,2.57,0,0,1,1.41-.48.23.23,0,0,0-.12,0,.27.27,0,0,1-.15,0,.11.11,0,0,0-.09,0c-.09,0-.27.06-.27.09A1.51,1.51,0,0,0,75,19.25Zm1.23-.39a.66.66,0,0,0-.24,0,0,0,0,0,1,0,0v0a2.07,2.07,0,0,0-.66.3,1.48,1.48,0,0,0,.51-.18c.09,0,.15,0,.21,0s.18-.06.18-.09Zm-.3-.15.51-.09a.84.84,0,0,0-.24,0l-.06,0C76.09,18.68,75.85,18.65,75.88,18.71Zm1.89,1.38a.71.71,0,0,1-.06-.24c.06.09.09.27.18.33a1.17,1.17,0,0,0-.3-.57A.85.85,0,0,0,77.77,20.09Zm3.42,2.82c-.18.09-.21.36-.36.57v.06s-.21.3-.3.42a2.12,2.12,0,0,0,.33-.75c0,.06,0,.09-.09.09v-.09c-.15.18-.18.48-.42.81l0-.06c-.06.18-.18.24-.18.39v0a.22.22,0,0,0,.09-.09h.06c-.06,0-.06.12-.12.18.15-.09.15-.24.27-.33s0,0,.06,0a2.17,2.17,0,0,1,.3-.51s.06,0,0,.09.09-.09.12-.18v-.06c0-.06,0-.12,0-.18v-.06C81,23.12,81.13,23,81.19,22.91Zm.24-.57c0-.09.39-.54.45-.69-.18.21-.78.75-.78,1.17v.09s.12-.24.18-.24,0,0,0,.09c.06-.15,0-.27.15-.39A0,0,0,0,1,81.43,22.34Z"/><path class="cls-2" d="M92.48,83.48h-5V78.94H102.9v4.54H98V96.72H92.48Zm11.27-4.54h15v4.54h-9.47v2.19h9.47v4.27h-9.47v2.24h9.47v4.54h-15Zm15.85,0h9c5.91,0,8,4.38,8,8.86,0,5.45-2.87,8.92-9,8.92H119.6Zm5.48,13.24h2.13c3.4,0,3.88-2.78,3.88-4.43a3.93,3.93,0,0,0-4.31-4.22H125Z"/><path class="cls-1" d="M75.4,87.88l-.29.1.15.07,0,0a3.93,3.93,0,0,0-1.37.36c0-.22,0,.1-.21.1,0,0-.34.33-.31.16a2,2,0,0,1-.48.29c0,.07,0,.12-.12.12s0,0,0,0a2.23,2.23,0,0,1-1.23.31.08.08,0,0,0,0-.1l-.07,0a6.91,6.91,0,0,1,0,3.07c0,.09-.07.79-.31,1-.31.6-.12.93-1.51,1.6a1.88,1.88,0,0,1-.65,0,1.52,1.52,0,0,1-1.08-.79,5.59,5.59,0,0,1-.21-3.17c.4-2,1.84-4.87,4-4.68.29,0,1.73.21,1.3.62a1.78,1.78,0,0,1-.53,0c-1.46.67-2.5,2.54-2.93,4.65A5.24,5.24,0,0,0,69.38,94a8.4,8.4,0,0,0,1.53-4.59v-.19c0-.07.07-.12.07-.19s-.12-.1-.09-.17.21-.19.33-.07a7,7,0,0,0,1.59-.55,6.21,6.21,0,0,1,2.57-.6v0l-.53.15.55,0Zm-1.46.27s.19,0,.16-.07A.26.26,0,0,0,73.94,88.15Zm.12.14c.09,0,.09,0,.07-.07S74,88.24,74.06,88.29Zm.19-.17a.09.09,0,0,0,0,.1C74.27,88.2,74.27,88.2,74.25,88.12Zm.77,0a1.76,1.76,0,0,0-.72,0l0,.08A2.24,2.24,0,0,1,75,88.08Zm-.32-.24c-.07.07-.09,0-.16,0s-.05,0-.05,0a.37.37,0,0,0,.21,0S74.82,87.86,74.7,87.84Z"/><path class="cls-1" d="M80.51,89.73a33.13,33.13,0,0,1-3.36,1.35,16.88,16.88,0,0,1,.63,8.83,4.72,4.72,0,0,0-.12.53c-.08,0-.46,1.72-1.16,1.65-.14,0-.24.22-.4,0-.15.1,0,.29-.63.22a.94.94,0,0,0-.77.45c-1.1.55-1.89-.5-2.42-1.37-.89-3.12.22-8.28.82-11.59A62.18,62.18,0,0,1,76,79c.07-.19.36-.72.84-.65.15-.41,1.18-.72,1.63-.58,1.06-.19.68,1,.34,2.07a83.8,83.8,0,0,0-2.38,9.7.45.45,0,0,1,.17.33,17.84,17.84,0,0,0,5-1.94c.07-.07.29-.12.26,0h.1c-.1.07-.07.12-.1.14s0,0,.1,0,0,0,0,0-.19.43-.21.4c-.6.41-.29.15-.89.58.21,0,.53-.34.53-.22s-.12.08-.15.15c.17-.07.55-.48.31-.1a1.66,1.66,0,0,1-.45.24h0l0,.05a.38.38,0,0,0-.22.17c-1.13.69-.89.38-1.13.62a4.59,4.59,0,0,0,1-.45ZM73.1,100c-.12,0-.12,0-.15,0s0,0,0,0,0,0,0,0h.12C73,100,73.1,100,73.1,100ZM73,99.12a.29.29,0,0,0,0-.22C73,99,72.93,99.09,73,99.12Zm.1,1.68s0,0,.07,0,0,0,0-.07,0,0,0,0,0-.09,0-.12-.07,0-.1-.09l0,0C73.1,100.6,73.07,100.7,73.12,100.8Zm0-.89a.16.16,0,0,1,0-.07s0,0,0,.07v0l0,0s-.07.12,0,.17,0,0,.07,0v-.09l0,0s-.05,0,0,0a.73.73,0,0,0-.07-.29S73.17,99.84,73.17,99.91Zm0,.5s0,0,0,.1,0-.15,0-.1c0-.17,0-.14,0-.09C73.22,100.2,73.19,100.39,73.22,100.41Zm.36.82s0,0,.07,0,0,0,0,0v0l0,0s0,0,0,0,0,.09,0,.12a2.65,2.65,0,0,0-.12-.31h0c0-.05,0,0,.08,0s-.08-.21-.15-.14l0,.07c.07,0,0,0,0,.07.14.17,0,.07,0,.1s-.07,0-.07,0c-.1-.17-.12-.36-.22-.51a1.91,1.91,0,0,1,.07.48h0c.09.1,0,.1,0,.12s0,0,0,0,0,0,0,0,0,0,0,.1l0,0a.11.11,0,0,0,0,.12s0-.07.07-.07,0-.05,0-.05.07,0,.07.08l0,0a.23.23,0,0,1,0,.17c-.08,0,0-.07-.1-.14,0,.09,0,.19.17.24,0,0-.07,0,0-.1-.12-.07-.05-.22-.12-.34s.07-.09.07,0S73.58,101.23,73.58,101.23Zm-.24-.87c0,.12.07.39.09.44s.07,0,0-.1a3.06,3.06,0,0,0-.1-.41h0S73.38,100.34,73.34,100.36Zm1.15,2.31s-.12,0-.12.14l-.05,0,0,0,.2-.09h-.05A.22.22,0,0,0,74.49,102.67Zm1.39-10.39h-.07l0,0A38.86,38.86,0,0,0,75,98.23a9.22,9.22,0,0,0,.16,2.69C76.5,99.12,76.48,94.63,75.88,92.28Zm1.66,2.8a.28.28,0,0,1-.08,0s.05,0,0-.12c0,.1,0,.1,0,0l0-.07s0,0,0-.07a.31.31,0,0,1,0,.07s0,.07,0,.07h-.19s.07.22.07.1l0,0,0,0,0,0a.12.12,0,0,0,0,.07l0,.05v0s0,0,0,0,0-.1,0-.15,0,0,0,.1,0,.1,0,.12-.07,0,0,0,.09.1,0-.07c0,0,0,0,0,0s0-.07.1-.07S77.51,95.11,77.54,95.08ZM77.3,92.9s0,0,0,0,0,.16.07.19C77.3,92.92,77.34,92.9,77.3,92.9Zm.16,1.44c-.07,0,0,0-.07-.07s0,.24,0,.26,0-.19,0-.19l0,.12c0,.07.14.26.07.26s0,.1.07.2v-.08l0,.1C77.44,94.75,77.46,94.56,77.46,94.34Zm-.07,1.2-.07,0a.11.11,0,0,0,.12,0c-.1,0,0,0-.1-.07s0,0,0,.09,0,.05,0,.05S77.39,95.59,77.39,95.54Zm0-2.59,0,0v0l0-.05a.09.09,0,0,0,0-.07,1,1,0,0,1,0,.29C77.44,93,77.42,93,77.42,93Zm0-.22c0,.07-.07.12,0,.17S77.49,92.8,77.44,92.73Zm.14,2.35c0-.12,0-.24-.07-.24s-.07.1,0,.12S77.54,95,77.58,95.08Zm2.52-5.64a.61.61,0,0,0-.31.22,2.1,2.1,0,0,0,.87-.46C80.56,89.3,80.13,89.49,80.1,89.44Zm.46-.33s.1-.17.07-.17,0,.1-.12.07-.29.12-.29.17S80.3,89.23,80.56,89.11Z"/><path class="cls-1" d="M148.35,95.66a2.06,2.06,0,0,0,.05.38c-.17-.09-.1-.24-.24-.24l.05.17s-.07,0-.1-.07,0,.1,0,.14-.24-.45-.29-.5a1.42,1.42,0,0,0,0,.55c-.12,0-.17-.69-.22-.74s-.07.53-.07.5-.17-.69-.17-.69a.6.6,0,0,0-.07.38c-.14-.05-.12-.43-.22-.43s0,.43-.07.43a10,10,0,0,1-.24-2.42c0-.17,0-.36,0-.53.25-3.24.41-5.81.77-9h-.17c-.64,0-1.6-.2-1.6-.75,0-.17,1.44-.19,1.92-.21.17-.63.33-2.5.6-3.34a1,1,0,0,1,1.08-.63c.4,0,1.49.1,1.49.58a.44.44,0,0,1-.05.22,3.54,3.54,0,0,1,.05.76,23.68,23.68,0,0,1-.22,2.48,3.86,3.86,0,0,1,2.23.45c-.12,0-.31.24-.45.24a.17.17,0,0,1,.09.1c-.36,0-1.7.07-2,.12-.48,4.56-1,7.82-1.56,12.14a1.91,1.91,0,0,0-.07.24s-.05-.19-.15-.4c0,.16,0,.33,0,.45a.65.65,0,0,1-.34-.57A.15.15,0,0,0,148.35,95.66Z"/><path class="cls-1" d="M159.15,91.7s-.14.1-.14.19a2.71,2.71,0,0,0-.17.31s-.07.15-.1.12-.12.17-.16.24a11.31,11.31,0,0,1-.85,1,.6.6,0,0,0-.28.22c-.24.29-.39.26-.75.43a1,1,0,0,1-.5,0c-.63.22-1.27-.41-1.49-1a11.41,11.41,0,0,1-.24-3.7.6.6,0,0,0-.09.24c-.36,1.2-1.59,3.46-1.92,3.41-.17.17-.2.31-.37.41a1,1,0,0,1-1-.12,1.17,1.17,0,0,1-.48-1A8.42,8.42,0,0,1,152,88.56a5.18,5.18,0,0,1,2-2,2.35,2.35,0,0,1,1.87.24c.22.12.13.24.13.27a.22.22,0,0,1-.24.09c0,.15.09.12.09.24a1.74,1.74,0,0,0,0,.34c0,.07,0,0,0,.33a29,29,0,0,0,.26,5.36c.51.33,3.41-3.7,3.89-4.47.17-.29.48-.74.58-.31,0,.1.12.14.14.29a1.22,1.22,0,0,1-.09.77l-.1.21c-.19,0,0,.12-.22.31s-.21.27-.26.39v0a.33.33,0,0,1,.1-.14c-.08,0,0,0,0-.1s-.08.07-.1.1,0,.12,0,0l-.21.32a4.89,4.89,0,0,0-.39.5l0,0c.07,0,.09-.19.19-.19v0l0,0C159.42,91.32,159.25,91.7,159.15,91.7ZM152,92.76c.92-1.66,1.59-3,2.52-4.68a1.47,1.47,0,0,1,.41-.63,6.46,6.46,0,0,0-1.75,2.31,17.59,17.59,0,0,0-1.25,3S152,92.8,152,92.76Zm1.37-2.21v0s0,0,0,0A.08.08,0,0,0,153.39,90.55Zm.31-.34s0,0,0,0a0,0,0,0,0,0,0l.1-.15v0s-.05,0-.05.07,0,0,0,0,0,.1-.09.2.05,0,.09,0l0,.07-.22.24c.07,0,.05,0,.15,0Zm-.21.6s0-.07,0-.07l0,0s0,.08,0,.1S153.46,90.86,153.49,90.81Zm0-.55v0s0,0,.08-.07,0,0,0,0S153.46,90.24,153.46,90.26Zm.17.22s0-.08,0-.08,0,0,0,.12S153.63,90.48,153.63,90.48Zm.22-.12s0,0,0-.08,0,0-.09.15h0S153.8,90.36,153.85,90.36Zm0,.14s.12-.1.14-.17l-.17.15Zm.22-.12c-.08,0-.12.12-.17.14S154,90.4,154,90.38Zm0-.65-.05,0,.09-.07a.21.21,0,0,0-.14.12.06.06,0,0,1,0,0S154,89.78,154,89.73Zm.07-.43v0s0,0,0,0l-.07,0s0,0,0,0,0,.05-.05.17,0,0,0,0A.79.79,0,0,1,154.09,89.3Zm.26-.46s.1,0,.14-.14,0,.07-.07,0Zm4.59,2.38a.11.11,0,0,0,0-.12.53.53,0,0,0-.15.17c.1-.1,0,0,0,.09a3.88,3.88,0,0,0-.29.44h0a0,0,0,0,1,0,0c.07,0,.22-.19.19-.26s.05,0,.07,0,.07-.1.07-.17S158.94,91.24,158.94,91.22Zm-.41.82s.05,0,.05,0V92Zm.17-.12,0,0a.4.4,0,0,0-.07.12C158.65,92,158.67,92,158.7,91.92Zm0,.33c.05-.07.07-.12.14-.14s.05-.1,0-.15l0,0c.07-.1.07-.07.07-.19-.05.16-.19.24-.24.31s-.07.07,0,.14c0,0-.07,0-.07,0s0,0,0,.07Zm.14-.5a.38.38,0,0,0,.17-.19c.08-.17.08-.08,0-.15a1,1,0,0,0-.24.34s0,0,0,0,0,0,0,0,.05.07.05.07.09-.16.12-.16Zm.2-.89c-.07,0-.22.19-.2.26S159,90.88,159,90.86Zm.09,0s.29-.24.27-.21-.1,0-.12,0-.07,0-.07.12h-.1S159.13,90.79,159.1,90.81Zm0,.79a1.25,1.25,0,0,0,.15-.19l-.15.15s0,.07,0,.09A.08.08,0,0,0,159.1,91.6Zm.82-.93c-.1.09,0,.17-.17.19.05,0-.05.07-.05,0s-.19.17.15-.27C159.85,90.64,159.85,90.67,159.92,90.67Zm.1-.19a.12.12,0,0,0,0,0S160,90.48,160,90.48Z"/><path class="cls-1" d="M162.15,93.72c.41.31,2.79-2.57,4.27-4.92l.08-.12c.28-.41.52-.63.79-.36s.24.43.21.52A20.38,20.38,0,0,1,166,91.27c-2.64,3.69-4.32,4-6,2.4-1.1-1-1.23-4-.77-7.44.46-4.25,2.54-9,4.49-9.29,1.3-.22,2.09.65,1.75,2.81-.55,3.52-1.85,5.52-3.41,8.47C162,89.16,161.65,93.31,162.15,93.72ZM161.24,91a.39.39,0,0,0,0,.17C161.29,91.08,161.24,91,161.24,91Zm.12-1.46s0,0-.05,0S161.33,89.54,161.36,89.52Zm-.05.19h.05l0-.12Zm.05.12-.05.14.07,0A.55.55,0,0,1,161.36,89.83Zm0,.38s0,0,0-.12A.07.07,0,0,0,161.36,90.21Zm0,.55a.65.65,0,0,0,0-.28s0,0,0-.08A1.24,1.24,0,0,0,161.36,90.76Zm0,.53s0,.07,0,.1S161.38,91.32,161.36,91.29Zm0-2s.08-.07.05-.14l-.05,0Zm.1,3.36c.05,0,0,0,0-.09S161.46,92.64,161.48,92.68Zm0-2.32c0-.29,0-.58,0-.84a4,4,0,0,0-.07.57Zm0,2.54c.05,0,0-.05,0-.1A.09.09,0,0,0,161.48,92.9Zm0-3.65s0,.12,0,.15v0A.13.13,0,0,0,161.5,89.25Zm0,2a4.67,4.67,0,0,0,.09,1.27C161.6,92.11,161.57,91.65,161.53,91.27Zm0-.39c-.05.05,0,.2,0,.27A1.21,1.21,0,0,0,161.55,90.88Zm.1-.14c0-.07,0-.14,0-.1s0-.14,0-.19l-.07.12V90.5a6.52,6.52,0,0,0,.05-1.39s-.12.91-.1,1.13l-.05.19,0,0a11.73,11.73,0,0,0,.07,1.85C161.65,91.89,161.67,91.29,161.65,90.74Zm0,1.94a1.21,1.21,0,0,0,0,.56A1.65,1.65,0,0,0,161.62,92.68Zm0,.6v0a1,1,0,0,1,0,.12l0,0S161.67,93.31,161.67,93.28Zm.05-4.51s.05,0,.05,0v-.1A.08.08,0,0,1,161.72,88.77Zm.48-2.93a28.89,28.89,0,0,0,2.52-7.51c.09-.34,0-.53,0-.38A25.49,25.49,0,0,0,162.2,85.84Z"/><path class="cls-1" d="M173.48,84.12a8.6,8.6,0,0,1-1.49,1.8,38.63,38.63,0,0,0-2.64,3,.81.81,0,0,0-.24.52.66.66,0,0,0,.12.39,24.42,24.42,0,0,0,3.46,3.81,1.1,1.1,0,0,0,.31.2c-.05,0-.1,0-.19,0h-.08c-.09,0,0-.07-.16-.07s-.15,0-.15,0-.17.12-.21.12-.34,0-.51,0a.54.54,0,0,0-.24,0s0,0,0,.07,0,0-.08,0c-1.53,0-2.47-1.22-3.35-2.23a9.06,9.06,0,0,0-.25,2.16,5.52,5.52,0,0,0,.25,1.8s0,.07,0,.1,0,0,0,0l-.08,0s0,0,0,0,0,.1,0,.12l-.07-.07a.06.06,0,0,1,0,.05c-.07-.05,0-.14-.14-.14,0,0,.05.07.05.09v0c-.05,0-.1-.08-.15-.12v0s-.05-.07-.07-.09.07.12.12.26a.14.14,0,0,1-.07-.07V96a.41.41,0,0,1-.19-.14.45.45,0,0,0,.09.21c-.05,0-.05,0-.05,0a.37.37,0,0,0-.16-.1h0s0,0,0,.07h0s0,0,0,0a.12.12,0,0,1-.08,0s0,0,0,0,0,0,0,0a.08.08,0,0,1,0,0H167v.09c0-.09-.12-.12-.21-.19v0a.18.18,0,0,1-.05.14.57.57,0,0,0-.1-.19V96s0,0,0,0-.07,0-.07,0h0a.08.08,0,0,0,0,0s-.24.07-.31.07c-.48,0-.72-.43-.74-.91-.41-.17-.51-.92-.51-1.64a39.27,39.27,0,0,1,.6-5.35,19.8,19.8,0,0,1,1.59-5.61c.19-.1.31-.22.5-.13.24-.67.24-1.15.87-1.2.21,0,.43.15.62.17,0,0,0,0,0,0,.59.09.64.55.64,1.05a7,7,0,0,1-.31,1.78c-.29,1.11-.53,2.14-.74,3.19,1-1.22,2.57-3.24,4-3.24C172.93,84.16,173.48,84,173.48,84.12Zm-5.91,11c0,.12.1.19.08.31v0c.09,0,.07.12.16.19a2.93,2.93,0,0,1-.07-.41s0,0,0,0,0,0,0,0,0-.12,0-.17,0,0,0,.07l0,0a7.21,7.21,0,0,1-.14-.86c.05,0,.05,0,.07,0s-.17-.17-.12-.29a.31.31,0,0,0,0-.1l0,0c-.07,0,0-.1-.07-.14a.2.2,0,0,0,0,.14s0,0,0,0,0,.07,0,.07v.05l0,0a2.18,2.18,0,0,0-.14-.68,2.42,2.42,0,0,0,0,.58l0,0c0,.17.1.29,0,.41s0,0,0,0,0,.07,0,.14,0,.26.05.38c-.12-.21-.12-.67-.19-.72a2.18,2.18,0,0,0,0,.41,1.82,1.82,0,0,1-.16-.62,1.65,1.65,0,0,0,.07,1.08s0,0-.05,0,0,.07.05.1,0,0,0,0,0,0,.08.05,0,.09.09.14c0-.14.05-.14,0-.19l.07,0s0-.12,0-.14h0s.08.1.08.1l0-.08c.07.1,0,.24.1.39a.11.11,0,0,1,0-.07s0,0,0,0,0-.21-.09-.24.07,0,.09,0,0-.08,0-.15l0,0h0c-.05,0-.05,0,0-.07A.34.34,0,0,1,167.57,95.13Zm-.59-.65s0,.12,0,.15,0-.07,0-.07Zm.19.39a.17.17,0,0,1-.08,0v0Zm.31-.6s0,.07,0,.09,0,.08,0,.12a.22.22,0,0,1,0-.16.17.17,0,0,0,0-.08Zm0,.48c.05,0,.05.09,0,.09S167.45,94.8,167.48,94.75Zm0-1.13,0,.07s0,.27.09.29a3.32,3.32,0,0,1,.07-1c-.07,0-.12.22-.16.46C167.57,93.5,167.5,93.57,167.5,93.62Zm0,1.34v0h.05l0,0Zm.17.48a.14.14,0,0,1,0-.07c.05,0,.08.1.05.12Zm.1-.19s0,0,0,0A.12.12,0,0,0,167.77,95.25Z"/><path class="cls-1" d="M176.29,88.15c0,1.41.74,3.43.74,4.49A2.15,2.15,0,0,1,174.87,95a2.36,2.36,0,0,1-2.3-1.92s0-.07.07-.07.14.07.24.07.07,0,.09,0a2.12,2.12,0,0,0,.94.24c.43,0,.7-.21.7-.74,0-.94-.77-2.64-.77-3.94a2.86,2.86,0,0,1,3-2.71c.51,0,1.44.15,1.44.6,0,.1-.11.15-.24.15a.32.32,0,0,1-.21-.08C176.62,86.56,176.29,87.24,176.29,88.15Z"/><path class="cls-1" d="M173.49,15.78c.43.4.57.39.36,1.06s-1.74,1.52-1.48,6.35a11.88,11.88,0,0,0,.3,1.69,6.3,6.3,0,0,0,1.63,2.49,7.81,7.81,0,0,0,7.86.18c3.42-1.93,3-7.95,3.68-14.16,0,0,.1-.36.22-.44a.38.38,0,0,0,.41.18c0,.14,0,.2,0,.24s.14,0,.22.14a.22.22,0,0,1,0,.15s0,0,.06,0a1.2,1.2,0,0,1,.22.82.43.43,0,0,1-.11-.32l0,0c-.08.06,0,.17.25,2.06a4.22,4.22,0,0,0,0-1.39l0,.08c.08.12,0,.24.07.35a3.49,3.49,0,0,0-.22-1.5s.12.09.12.09l.11.15s.06,0,.09.06,0,.36,0,.48a.24.24,0,0,0,.16.06c.49,1.33.17,4.63.09,6.29,0,.06,0,.06-.06.09a2,2,0,0,1-.07-.87l.06.08c.05-1,.11-2.7.06-3.87,0,0,0,0-.09-.05s.06-.5.06-.5a.2.2,0,0,1,0,.11c.05-.27-.2-.38-.11-.5l-.08-.12a15.11,15.11,0,0,0,0,1.56l.07-.05c.1.22-.18.58,0,1.63a.17.17,0,0,1-.15-.07s0,.62.08.8l-.09-.05a2,2,0,0,1,.08.8l0,0a1.06,1.06,0,0,1-.06.5l.1,0a4,4,0,0,1,.07,1.37c-.27,2.64-1.39,6.55-3.31,7.85,0,0-.08.05-.11,0a0,0,0,0,0,0-.06l0,0c-.31.21-.49.45-.77.63-.12.08-.4.16-.52.24s.05.08,0,.13-.17,0-.28.08l-.16.11a5.92,5.92,0,0,0-.9.27,2.18,2.18,0,0,0,1.53-.52l.43-.3c-.07.16-.12.08-.18.24.23-.16.2-.2.26-.12a7.48,7.48,0,0,1-1.77.86c.13,0,.36-.07.45,0a1.29,1.29,0,0,1-.68.17l0,0s.09,0,.09,0l0,0s-.13,0-.13,0c-.29.26-.71.14-1,.26-2.22-.32-6.29.68-9.57-3.14-2.62-3.05-2.32-10.43,1.52-13A1.53,1.53,0,0,1,173.49,15.78Zm6.78,16a.8.8,0,0,1,.26.05C180.47,31.77,180.35,31.85,180.27,31.73ZM171,17.78a4,4,0,0,1,1.42-1.88.31.31,0,0,0-.18.07.55.55,0,0,1-.17.17.22.22,0,0,0-.15,0c-.12.08-.3.32-.27.36A2.38,2.38,0,0,0,171,17.78Zm1.26-1.6a1.32,1.32,0,0,0-.28.25,0,0,0,0,1-.07,0l0,0a3.31,3.31,0,0,0-.59,1,2.25,2.25,0,0,0,.51-.68,2.78,2.78,0,0,1,.3-.15c.07-.05.18-.24.15-.27Zm-.52.07.58-.57a1.07,1.07,0,0,0-.33.17l-.06.1C172,16,171.62,16.2,171.71,16.25Zm15.21.75c-.16.28,0,.66,0,1.06l.05.08s0,.58,0,.81a3.35,3.35,0,0,0-.23-1.27c0,.11,0,.15,0,.2l-.08-.12c0,.37.19.79.17,1.43l-.09-.05c.08.29,0,.47.11.67l0,0a.3.3,0,0,0,0-.2l.08,0c-.05.09,0,.21,0,.34.12-.25,0-.45.06-.67.07,0,.07,0,.11,0a3.27,3.27,0,0,1-.06-.94s.1,0,.12.1c0-.11,0-.2,0-.35l-.06-.07c0-.08-.06-.19-.12-.27l0-.07A2.13,2.13,0,0,1,186.92,17Zm-.2-1c-.08-.11,0-1,0-1.29,0,.43-.35,1.66,0,2.21l.08.12c0-.07-.06-.42,0-.47s.07,0,.12.09c-.06-.25-.2-.38-.15-.64A.06.06,0,0,1,186.72,16Z"/><path class="cls-1" d="M187,22c4,1.16,13.7,1.49,23.33-.11.06,0,.57.07.75.22a.52.52,0,0,0,0,.65c-.21,0-.31,0-.35,0s0,.2-.09.35a.18.18,0,0,1-.18.09c0,.05.06.05,0,.1a1.44,1.44,0,0,1-1.07.52.56.56,0,0,1,.41-.24l-.06,0c-.12-.11-.25,0-2.84.85a6.07,6.07,0,0,0,2-.28l-.09.1c-.12.14-.35,0-.47.18.72,0,1.07-.26,2.05-.68.06.05-.06.2-.06.2l-.16.19c.06.05,0,.1,0,.15-.16.2-.55,0-.67.18s0,.15,0,.25c-1.62,1-6.6,1.33-9,1.6-.1,0-.1,0-.17-.06a2.32,2.32,0,0,1,1.22-.3l-.09.09c1.5-.15,4-.47,5.64-.81,0,0-.06-.05,0-.15l.76,0a.18.18,0,0,1-.14,0c.41,0,.43-.39.66-.28l.12-.14a21.31,21.31,0,0,0-2.28.32l.13.1c-.27.2-1-.13-2.38.33,0,0-.08-.16,0-.25s-.88.17-1.11.31l0-.15a2.65,2.65,0,0,1-1.11.31l-.06-.05a1.88,1.88,0,0,1-.75,0l0,.15c-.29.34-2-.16-1.95-.16a29.86,29.86,0,0,1-12.06-1.66m18.82.38c-.49-.17-.93.21-1.52.3l-.08.09c0-.05-.84.12-1.19.16a4,4,0,0,0,1.7-.64c-.14.05-.18.09-.3,0l.12-.15c-.55,0-1,.47-2,.59l0-.15c-.37.19-.7.08-.9.32l0,.05a.57.57,0,0,0,.3,0l.13.1c-.17,0-.29.09-.5.09.43.11.64-.13,1-.07,0,.1,0,.1.08.15a4.59,4.59,0,0,1,1.31-.31c-.06,0,.08.16-.06.2.14,0,.3,0,.49-.08l.08-.1c.09-.1.23-.14.31-.24l.08-.1C205.1,24.32,205.47,24.39,205.76,24.3Zm1.27-.51c.13-.15,1.54-.2,1.87-.34-.66,0-2.62-.14-3.2.54l-.12.15c.1,0,.57-.18.69-.08s0,.1-.06.2c.33-.14.43-.38.84-.37C207.05,23.89,207,23.84,207,23.79Z"/><path class="cls-1" d="M179,6.67c-.35-1.93-2-2.86-2.13-4.27C176.74,1.32,177.06.24,178,0a1.8,1.8,0,0,1,.91,0,2.27,2.27,0,0,1,1,.94c0,.05,0,.08,0,.08S179.8,1,179.75,1l-.05,0a1.09,1.09,0,0,0-.85-.13,1,1,0,0,0-.71,1.44,22.86,22.86,0,0,1,1.76,3.73c.74,2.94-.1,5.69-2.07,6.1a1,1,0,0,1-1-.47c-.25-.35,0-.68.39-.49C178.3,11.16,179.44,8.92,179,6.67Z"/><path class="cls-1" d="M173.94,8.5c.2,1.05,1.07,1.56,1.17,2.34.08.59-.1,1.18-.63,1.29a1.06,1.06,0,0,1-.49,0,1.19,1.19,0,0,1-.55-.51s0,0,0-.05.06.05.08,0h0a.59.59,0,0,0,.46.07.53.53,0,0,0,.39-.78,12.22,12.22,0,0,1-1-2c-.4-1.6,0-3.11,1.13-3.33a.51.51,0,0,1,.57.26c.14.19,0,.37-.21.27C174.34,6,173.71,7.27,173.94,8.5Z"/><path class="cls-1" d="M183.07,6.4a18.5,18.5,0,0,1,.8,2.47c.41,1.6-.05,3.11-1.13,3.33a.52.52,0,0,1-.57-.25c-.13-.2,0-.38.21-.28.62,0,1.24-1.25,1-2.49-.19-1-1.56-2.83-1.06-3.43C182.5,5.53,183,6.18,183.07,6.4Z"/></g></g></svg>